<svg id="Ebene_1" data-name="Ebene 1" xmlns="http://www.w3.org/2000/svg" xmlns:xlink="http://www.w3.org/1999/xlink" viewBox="0 0 168.14 110.44"><defs><style>.cls-1{fill:#ffe500;}.cls-2{clip-path:url(#clip-path);}.cls-3{fill:#005a9f;}</style><clipPath id="clip-path" transform="translate(-6.38 -4.13)"><path class="cls-1" d="M170.27,114.57a84.07,84.07,0,1,0-159.65,0H170.27Z"/></clipPath></defs><title>05_MUCDE_Logo_Pos_RGB_1</title><path class="cls-1" d="M170.27,114.57a84.07,84.07,0,1,0-159.65,0H170.27Z" transform="translate(-6.38 -4.13)"/><g class="cls-2"><rect class="cls-1" width="168.14" height="110.44"/></g><path class="cls-3" d="M172.58,106.07H144V93.28l-0.48-5.62h-0.21l-0.6,5.76v2.3L141,92.91V79.17l-0.45-5.32h-0.31L139.66,78l-1.52-1.21-3.75-30.87a1.75,1.75,0,0,0,1.23-1.67,1.65,1.65,0,0,0-.22-0.81l1.22-1.56-0.24-.28-1.9,1-0.25-.11a0.85,0.85,0,0,0,.49-0.78,0.87,0.87,0,1,0-1.24.78l-0.26.11-1.89-1-0.23.28,1.21,1.56a1.7,1.7,0,0,0,1,2.48l-3.76,30.87L128,78l-0.54-4.11h-0.31l-0.45,5.32V92.91L125,95.72v-2.3l-0.59-5.76h-0.22l-0.49,5.63v12.78H98v-5l-2.31-2.28V81.15l-0.57-.93v-16l-0.83-1.55V60.35l0.36-.41-0.31-.77V51.6A10.36,10.36,0,0,0,96,46c0-5.79-4.82-10.55-11-11.15-0.79-.47-1-1.9-1-2.8a1.23,1.23,0,1,0-.54,0c0,0.9-.23,2.33-1,2.8-6.19.6-11,5.36-11,11.15A10.39,10.39,0,0,0,73,51.6v7.58l-0.31.77,0.36,0.41v2.32l-0.83,1.55v16l-0.57.93V98.79l-2.16,2.11-2.16-2.11V81.15l-0.57-.93v-16L66,62.67V60.35l0.36-.41L66,59.17V51.6A10.44,10.44,0,0,0,67.64,46c0-5.79-4.83-10.55-11-11.15-0.8-.47-1-1.9-1-2.8a1.23,1.23,0,1,0-.54,0c0,0.9-.24,2.33-1,2.8h0c-6.18.6-11,5.36-11,11.15a10.43,10.43,0,0,0,1.63,5.57v7.58l-0.31.77,0.37,0.41v2.32l-0.83,1.55v16l-0.57.93V98.79L41,101.07v5H8.31a84.3,84.3,0,0,0,2.31,8.5H170.27a84.12,84.12,0,0,0,2.31-8.5h0ZM127,101.72H125.2v-3l0.89-1.55,0.9,1.55v3h0Zm2.36-20.92h-1.14V78.92l1.14-.9v2.77h0Zm4.5-35.9a0.82,0.82,0,1,1,.83-0.83,0.82,0.82,0,0,1-.83.83h0Zm5.64,35.9h-1.14V78l1.14,0.9v1.87h0Zm3,20.92h-1.79v-3l0.89-1.55,0.9,1.55v3h0Z" transform="translate(-6.38 -4.13)"/></svg>