<?xml version="1.0" encoding="UTF-8" standalone="no"?>
<svg
   xmlns:dc="http://purl.org/dc/elements/1.1/"
   xmlns:cc="http://creativecommons.org/ns#"
   xmlns:rdf="http://www.w3.org/1999/02/22-rdf-syntax-ns#"
   xmlns:svg="http://www.w3.org/2000/svg"
   xmlns="http://www.w3.org/2000/svg"
   xmlns:sodipodi="http://sodipodi.sourceforge.net/DTD/sodipodi-0.dtd"
   xmlns:inkscape="http://www.inkscape.org/namespaces/inkscape"
   version="1.1"
   id="svg2"
   xml:space="preserve"
   width="172"
   height="29.333332"
   viewBox="0 0 172 29.333332"
   sodipodi:docname="12lh.eps"><metadata
     id="metadata8"><rdf:RDF><cc:Work
         rdf:about=""><dc:format>image/svg+xml</dc:format><dc:type
           rdf:resource="http://purl.org/dc/dcmitype/StillImage" /></cc:Work></rdf:RDF></metadata><defs
     id="defs6" /><sodipodi:namedview
     pagecolor="#ffffff"
     bordercolor="#666666"
     borderopacity="1"
     objecttolerance="10"
     gridtolerance="10"
     guidetolerance="10"
     inkscape:pageopacity="0"
     inkscape:pageshadow="2"
     inkscape:window-width="640"
     inkscape:window-height="480"
     id="namedview4" /><g
     id="g10"
     inkscape:groupmode="layer"
     inkscape:label="ink_ext_XXXXXX"
     transform="matrix(1.3333333,0,0,-1.3333333,0,29.333333)"><g
       id="g12"
       transform="scale(0.1)"><path
         d="m 358.109,17.1133 v 79.6953 h 0.243 l 33.125,-79.6953 h 7.8 l 33.129,80.0586 h 0.239 V 17.1133 h 7.8 V 103.773 H 428.563 L 395.316,28.2734 362.793,103.773 H 350.309 V 17.1133 h 7.8"
         style="fill:#231f20;fill-opacity:1;fill-rule:nonzero;stroke:none"
         id="path14" /><path
         d="m 500.176,91.4102 v 10.5628 h -8.883 V 91.4102 Z m -20.883,0 V 101.973 H 470.41 V 91.4102 Z m 22.562,-48.7344 c 0,-10.8008 -5.402,-20.7656 -17.281,-20.7656 -9.844,0 -15.844,6.1211 -15.844,16.5664 v 38.8906 h -7.203 V 39.6758 c 0,-6.961 1.563,-24.3672 21.246,-24.3672 7.801,0 14.641,3.4844 18.844,10.9258 l 0.238,-0.2422 0.36,-8.8789 h 7.441 c -0.238,4.0781 -0.597,8.8789 -0.597,13.5586 v 46.6953 h -7.204 V 42.6758"
         style="fill:#231f20;fill-opacity:1;fill-rule:evenodd;stroke:none"
         id="path16" /><path
         d="m 535.438,51.8008 c 0,10.8008 5.402,20.7617 17.285,20.7617 9.84,0 15.843,-6.1211 15.843,-16.5625 V 17.1133 h 7.2 v 37.6875 c 0,6.9609 -1.559,24.3633 -21.243,24.3633 -7.8,0 -14.644,-3.4805 -18.843,-10.9219 l -0.242,0.2383 -0.36,8.8867 h -7.441 c 0.238,-4.082 0.601,-8.8867 0.601,-13.5664 V 17.1133 h 7.2 v 34.6875"
         style="fill:#231f20;fill-opacity:1;fill-rule:nonzero;stroke:none"
         id="path18" /><path
         d="m 640.793,58.8789 c -0.598,12.8438 -10.68,20.2852 -23.043,20.2852 -17.883,0 -26.887,-15.6016 -26.887,-31.9258 0,-16.4453 8.403,-31.9297 26.407,-31.9297 13.683,0 21.605,6.8437 23.523,20.6484 h -7.801 c -0.597,-8.2851 -7.082,-14.0468 -16.441,-14.0468 -11.043,0 -17.883,11.6445 -17.883,25.4492 0,13.6797 6.84,25.2031 17.883,25.2031 9.961,0 15.844,-4.4375 16.441,-13.6836 h 7.801"
         style="fill:#231f20;fill-opacity:1;fill-rule:nonzero;stroke:none"
         id="path20" /><path
         d="m 662.152,103.773 h -7.203 V 17.1133 h 7.203 v 34.6875 c 0,10.8008 5.403,20.7617 17.286,20.7617 9.839,0 15.839,-6.1211 15.839,-16.5625 V 17.1133 h 7.203 v 37.6875 c 0,6.9609 -1.558,24.3633 -21.246,24.3633 -7.8,0 -14.64,-3.4805 -18.839,-10.9219 h -0.243 v 35.5308"
         style="fill:#231f20;fill-opacity:1;fill-rule:nonzero;stroke:none"
         id="path22" /><path
         d="m 772.43,45.5586 c 0,18.8437 -7.321,33.6055 -27.485,33.6055 -17.882,0 -26.886,-15.6016 -26.886,-31.9258 0,-16.4453 8.402,-31.9297 26.406,-31.9297 14.523,0 23.523,6.6016 27.242,21.0039 h -7.559 c -1.8,-8.2812 -8.882,-14.4023 -17.402,-14.4023 -14.766,0 -20.644,10.8046 -20.883,23.6484 z m -46.328,6.6016 c 0.961,10.5625 7.199,20.4023 18.961,20.4023 12.484,0 18.726,-8.7617 19.566,-20.4023 h -38.527"
         style="fill:#231f20;fill-opacity:1;fill-rule:evenodd;stroke:none"
         id="path24" /><path
         d="m 795.57,51.8008 c 0,10.8008 5.403,20.7617 17.282,20.7617 9.843,0 15.843,-6.1211 15.843,-16.5625 V 17.1133 h 7.203 v 37.6875 c 0,6.9609 -1.562,24.3633 -21.246,24.3633 -7.8,0 -14.64,-3.4805 -18.843,-10.9219 l -0.239,0.2383 -0.359,8.8867 h -7.441 c 0.238,-4.082 0.597,-8.8867 0.597,-13.5664 V 17.1133 h 7.203 v 34.6875"
         style="fill:#231f20;fill-opacity:1;fill-rule:nonzero;stroke:none"
         id="path26" /><path
         d="m 401.711,132.68 v 7.203 h -43.57 v 79.457 h -7.801 v -86.66 h 51.371"
         style="fill:#231f20;fill-opacity:1;fill-rule:nonzero;stroke:none"
         id="path28" /><path
         d="m 417.168,149.484 c 0,15.125 21.363,13.204 31.566,13.563 0.723,-12.602 -2.281,-25.567 -18.004,-25.567 -7.32,0 -13.562,3.84 -13.562,12.004 z m 31.566,20.164 c -8.761,-0.48 -19.203,0.719 -27.246,-2.757 -7.199,-3.004 -12.121,-9.246 -12.121,-17.407 0,-11.761 8.883,-18.605 20.043,-18.605 8.164,0 16.203,4.801 18.844,9.844 l 0.363,0.84 h 0.238 l 0.239,-8.883 h 7.441 c -0.238,4.082 -0.719,8.883 -0.597,13.562 v 28.567 c 0.238,13.804 -8.043,19.925 -21.364,19.925 -11.523,0 -20.765,-4.679 -22.566,-17.043 h 7.683 c 0.957,8.161 7.2,10.442 14.762,10.442 8.52,0 13.563,-3.121 14.281,-12.961 v -5.524"
         style="fill:#231f20;fill-opacity:1;fill-rule:evenodd;stroke:none"
         id="path30" /><path
         d="m 481.855,167.367 c 0,10.805 5.399,20.766 17.282,20.766 9.843,0 15.843,-6.121 15.843,-16.563 v -38.89 h 7.204 v 37.687 c 0,6.965 -1.563,24.367 -21.246,24.367 -7.801,0 -14.641,-3.48 -18.844,-10.921 l -0.239,0.238 -0.359,8.883 h -7.441 c 0.238,-4.082 0.597,-8.883 0.597,-13.563 V 132.68 h 7.203 v 34.687"
         style="fill:#231f20;fill-opacity:1;fill-rule:nonzero;stroke:none"
         id="path32" /><path
         d="m 582.648,164.246 c 0,-13.68 -4.8,-26.766 -20.523,-26.766 -13.801,0 -17.043,15.247 -17.043,26.407 0,11.523 4.441,24.246 18.125,24.246 14.043,0 19.441,-11.641 19.441,-23.887 z m 0.602,-31.566 h 7.441 c -0.238,4.082 -0.597,8.883 -0.597,13.562 v 73.098 h -7.203 v -35.289 l -0.243,-0.238 c -4.199,7.082 -12.601,10.921 -20.644,10.921 -17.879,0 -24.723,-16.082 -24.723,-31.687 0,-15.121 6.844,-32.168 24.723,-32.168 8.402,0 15.726,3.961 20.644,11.164 l 0.243,-0.48 0.359,-8.883"
         style="fill:#231f20;fill-opacity:1;fill-rule:evenodd;stroke:none"
         id="path34" /><path
         d="m 658.84,161.125 c 0,18.848 -7.32,33.609 -27.485,33.609 -17.882,0 -26.882,-15.601 -26.882,-31.925 0,-16.446 8.398,-31.93 26.402,-31.93 14.523,0 23.523,6.601 27.246,21.004 h -7.562 c -1.801,-8.281 -8.879,-14.403 -17.403,-14.403 -14.761,0 -20.644,10.805 -20.886,23.645 z m -46.328,6.605 c 0.961,10.559 7.203,20.403 18.965,20.403 12.48,0 18.722,-8.762 19.562,-20.403 h -38.527"
         style="fill:#231f20;fill-opacity:1;fill-rule:evenodd;stroke:none"
         id="path36" /><path
         d="m 672.738,177.93 c 0,-11.16 9.606,-13.922 19.086,-16.203 9.602,-2.161 19.082,-3.598 19.082,-12.243 0,-8.402 -8.043,-12.004 -15.722,-12.004 -8.161,0 -16.082,2.641 -16.684,11.645 h -7.801 c 0.242,-13.324 12.242,-18.246 22.684,-18.246 12.722,0 25.324,6.121 25.324,19.687 0,6.481 -3.957,11.883 -10.199,14.043 -16.324,5.758 -27.969,4.918 -27.969,13.801 0,7.082 6.844,9.723 13.566,9.723 7.442,0 14.161,-2.52 14.883,-10.082 h 7.801 c -0.961,12.722 -10.562,16.683 -21.965,16.683 -10.562,0 -22.086,-4.32 -22.086,-16.804"
         style="fill:#231f20;fill-opacity:1;fill-rule:nonzero;stroke:none"
         id="path38" /><path
         d="m 741.988,219.34 h -7.203 v -86.66 h 7.203 v 34.687 c 0,10.805 5.399,20.766 17.282,20.766 9.843,0 15.843,-6.121 15.843,-16.563 v -38.89 h 7.2 v 37.687 c 0,6.965 -1.559,24.367 -21.243,24.367 -7.8,0 -14.64,-3.48 -18.843,-10.921 h -0.239 v 35.527"
         style="fill:#231f20;fill-opacity:1;fill-rule:nonzero;stroke:none"
         id="path40" /><path
         d="m 804.016,149.484 c 0,15.125 21.363,13.204 31.566,13.563 0.719,-12.602 -2.281,-25.567 -18.004,-25.567 -7.32,0 -13.562,3.84 -13.562,12.004 z m 31.566,20.164 c -8.762,-0.48 -19.207,0.719 -27.246,-2.757 -7.203,-3.004 -12.121,-9.246 -12.121,-17.407 0,-11.761 8.879,-18.605 20.043,-18.605 8.16,0 16.203,4.801 18.844,9.844 l 0.359,0.84 h 0.238 l 0.242,-8.883 h 7.442 c -0.242,4.082 -0.723,8.883 -0.602,13.562 v 28.567 c 0.242,13.804 -8.043,19.925 -21.363,19.925 -11.523,0 -20.766,-4.679 -22.566,-17.043 h 7.683 c 0.961,8.161 7.203,10.442 14.762,10.442 8.523,0 13.562,-3.121 14.285,-12.961 v -5.524"
         style="fill:#231f20;fill-opacity:1;fill-rule:evenodd;stroke:none"
         id="path42" /><path
         d="m 901.828,158.246 c 0,-10.801 -5.402,-20.766 -17.285,-20.766 -9.84,0 -15.844,6.122 -15.844,16.567 v 38.887 H 861.5 v -37.688 c 0,-6.961 1.559,-24.367 21.242,-24.367 7.805,0 14.645,3.48 18.844,10.922 l 0.242,-0.238 0.36,-8.883 h 7.441 c -0.242,4.082 -0.602,8.883 -0.602,13.562 v 46.692 h -7.199 v -34.688"
         style="fill:#231f20;fill-opacity:1;fill-rule:nonzero;stroke:none"
         id="path44" /><path
         d="m 934.207,164.246 c 0,12.246 5.402,23.887 19.445,23.887 13.684,0 18.364,-12.723 18.364,-24.246 0,-11.16 -3.481,-26.407 -17.286,-26.407 -15.722,0 -20.523,13.086 -20.523,26.766 z m 0,-22.203 h 0.242 c 4.922,-7.203 12.242,-11.164 21.004,-11.164 17.524,0 24.363,17.047 24.363,32.168 0,15.605 -6.839,31.687 -24.722,31.687 -8.043,0 -16.446,-3.839 -20.645,-10.921 l -0.242,0.238 -0.359,8.883 h -7.438 c 0.238,-4.082 0.719,-8.883 0.598,-13.563 v -69.738 h 7.199 v 32.41"
         style="fill:#231f20;fill-opacity:1;fill-rule:evenodd;stroke:none"
         id="path46" /><path
         d="m 1000.08,148.766 c 0,-8.164 -0.842,-17.887 14.4,-17.887 2.4,0 5.04,0.48 7.32,1.082 v 6.242 c -1.92,-0.601 -4.08,-0.723 -6.24,-0.723 -5.52,0 -8.4,3 -8.28,8.524 v 40.328 h 13.68 v 6.602 h -13.68 v 15.964 l -7.2,-3.121 v -12.843 h -12.006 v -6.602 h 12.006 v -37.566"
         style="fill:#231f20;fill-opacity:1;fill-rule:nonzero;stroke:none"
         id="path48" /><path
         d="m 1032.77,177.93 c 0,-11.16 9.6,-13.922 19.08,-16.203 9.6,-2.161 19.09,-3.598 19.09,-12.243 0,-8.402 -8.05,-12.004 -15.73,-12.004 -8.16,0 -16.08,2.641 -16.68,11.645 h -7.8 c 0.24,-13.324 12.24,-18.246 22.68,-18.246 12.73,0 25.33,6.121 25.33,19.687 0,6.481 -3.96,11.883 -10.2,14.043 -16.33,5.758 -27.97,4.918 -27.97,13.801 0,7.082 6.84,9.723 13.56,9.723 7.44,0 14.17,-2.52 14.89,-10.082 h 7.8 c -0.96,12.722 -10.57,16.683 -21.97,16.683 -10.56,0 -22.08,-4.32 -22.08,-16.804"
         style="fill:#231f20;fill-opacity:1;fill-rule:nonzero;stroke:none"
         id="path50" /><path
         d="m 1099.98,148.766 c 0,-8.164 -0.84,-17.887 14.4,-17.887 2.4,0 5.04,0.48 7.32,1.082 v 6.242 c -1.92,-0.601 -4.08,-0.723 -6.24,-0.723 -5.52,0 -8.41,3 -8.28,8.524 v 40.328 h 13.68 v 6.602 h -13.68 v 15.964 l -7.2,-3.121 v -12.843 h -12.01 v -6.602 h 12.01 v -37.566"
         style="fill:#231f20;fill-opacity:1;fill-rule:nonzero;stroke:none"
         id="path52" /><path
         d="m 1137.23,149.484 c 0,15.125 21.36,13.204 31.56,13.563 0.72,-12.602 -2.28,-25.567 -18,-25.567 -7.32,0 -13.56,3.84 -13.56,12.004 z m 31.56,20.164 c -8.76,-0.48 -19.2,0.719 -27.24,-2.757 -7.2,-3.004 -12.12,-9.246 -12.12,-17.407 0,-11.761 8.88,-18.605 20.04,-18.605 8.16,0 16.2,4.801 18.84,9.844 l 0.36,0.84 h 0.24 l 0.24,-8.883 h 7.44 c -0.23,4.082 -0.71,8.883 -0.6,13.562 v 28.567 c 0.24,13.804 -8.04,19.925 -21.36,19.925 -11.52,0 -20.76,-4.679 -22.56,-17.043 h 7.68 c 0.96,8.161 7.2,10.442 14.76,10.442 8.52,0 13.56,-3.121 14.28,-12.961 v -5.524"
         style="fill:#231f20;fill-opacity:1;fill-rule:evenodd;stroke:none"
         id="path54" /><path
         d="m 1236,164.246 c 0,-13.68 -4.8,-26.766 -20.52,-26.766 -13.81,0 -17.05,15.247 -17.05,26.407 0,11.523 4.45,24.246 18.12,24.246 14.05,0 19.45,-11.641 19.45,-23.887 z m 0.6,-31.566 h 7.44 c -0.24,4.082 -0.6,8.883 -0.6,13.562 v 73.098 h -7.2 v -35.289 l -0.24,-0.238 c -4.2,7.082 -12.6,10.921 -20.64,10.921 -17.89,0 -24.73,-16.082 -24.73,-31.687 0,-15.121 6.84,-32.168 24.73,-32.168 8.4,0 15.72,3.961 20.64,11.164 l 0.24,-0.48 0.36,-8.883"
         style="fill:#231f20;fill-opacity:1;fill-rule:evenodd;stroke:none"
         id="path56" /><path
         d="m 1266.58,148.766 c 0,-8.164 -0.84,-17.887 14.4,-17.887 2.4,0 5.04,0.48 7.32,1.082 v 6.242 c -1.91,-0.601 -4.08,-0.723 -6.23,-0.723 -5.53,0 -8.41,3 -8.29,8.524 v 40.328 h 13.68 v 6.602 h -13.68 v 15.964 l -7.2,-3.121 v -12.843 h -12 v -6.602 h 12 v -37.566"
         style="fill:#231f20;fill-opacity:1;fill-rule:nonzero;stroke:none"
         id="path58" /><path
         d="M 7.96094,216.934 H 175.418 V 89.9883 C 175.418,43.4102 137.879,6.41797 91.7461,6.38672 45.5859,6.35547 7.96094,43.8281 7.96094,89.9883 c 0,0 0,75.1637 0,126.9457 z"
         style="fill:none;stroke:#231f20;stroke-width:4.762;stroke-linecap:butt;stroke-linejoin:miter;stroke-miterlimit:3.86369;stroke-dasharray:none;stroke-opacity:1"
         id="path60" /><path
         d="m 94.1641,145.902 c 6.8669,0.223 12.0549,2.735 14.9219,5.754 1.703,1.578 3.23,3.133 3.816,5.348 l -2.793,1.094 c -0.562,-1.805 -1.429,-2.664 -2.839,-3.969 -2.676,-2.816 -8.2895,-5.184 -14.7856,-5.184 -5.4024,0 -10.1953,1.77 -13.1953,3.84 -2.2969,1.453 -3.8282,2.836 -4.5703,5.336 l -2.7422,-1.266 c 0.7851,-2.937 3.0429,-5.023 5.7148,-6.71 3.1445,-2.172 7.3633,-4.004 12.9375,-4.235 V 117.66 H 75.2188 v -3.453 H 90.6016 V 63.3828 h 3.5625 v 50.8242 h 16.0699 v 3.453 H 94.1641 Z m -8.3243,46.493 c 4.7461,0 15.0432,-0.555 19.8442,-2.387 5.429,-2.399 8.343,-4.969 11.714,-10.746 1.715,-3.426 2.403,-4.629 3.258,-9.199 -6.113,0 -20.289,1.542 -17.203,-4.629 0.344,-0.86 4.402,-5.262 10.231,-6.289 7.488,-1.543 17.55,-0.172 25.379,2.914 2.687,1.031 -0.731,4.347 1.144,5.429 0,0 1.34,0.688 3.398,1.887 -0.515,1.371 -1.027,2.23 -1.542,3.543 l 10.261,5.316 7.489,-15.144 -10.434,-5.66 -3.543,7.3 c 2.109,1.625 2.086,1.543 5.633,3.942 -0.172,0.687 -0.344,1.129 -0.688,1.812 -1.371,-0.343 -6.258,-3.851 -6.429,-4.367 -0.688,-1.543 0.414,-2.344 0.07,-4.058 -0.512,-2.231 -1.875,-2.664 -3.93,-3.352 0,-0.687 0.168,-1.094 0.34,-1.609 2.574,0.515 4.035,1.375 4.891,4.117 1.004,-1.777 0.847,-2.395 1.851,-3.86 l -8.5,-5.183 v 8 c -0.683,0 -1.726,-0.344 -2.41,-0.512 V 60.1992 c -3.601,0.3438 -10.062,2.0039 -12.461,5.2617 -2.687,3.9414 -2.172,8.8594 -2.172,15.3164 0,0.8594 0.512,41.0977 -0.515,45.9027 -1.028,3.715 -2.516,5.543 -3.715,7.258 -1.199,1.714 -3.946,3.656 -5.832,4.343 V 61.6289 L 73.5,61.6875 v 75.3355 c -2.4609,-0.597 -3.8633,-1.359 -5.7148,-3.085 -2.3985,-2.239 -3.9454,-5.204 -3.9454,-7.43 0,0 -0.0546,-36.3557 -0.0546,-45.9025 0,-9.2032 -1.0274,-11.2032 -1.8868,-12.2305 -3.4296,-5.4883 -7.7148,-7.3164 -13.5468,-7.3164 0,34.2383 0.2265,84.9964 0.2265,91.9684 0,3.375 0.5157,6.633 -2.5156,7.661 0,-2.403 -0.1992,-4.118 -0.1992,-6.973 l -15.1758,8.344 c 0.2617,0.851 0.4766,0.918 0.8203,1.777 2.2305,-0.516 2.4414,-1.078 4.4961,-1.762 0,0.168 0.4141,1.188 0.4141,1.188 0,0 -2.6094,1.711 -4.3242,1.711 0.3437,0.855 0.3125,0.832 0.6523,1.004 1.0273,0.515 2.5742,-0.856 4.8008,-1.372 0.1719,0.684 0.1719,1.168 0,1.34 -0.8555,0.86 -2.4883,0.938 -4.2031,1.797 -0.5704,0.508 -3.4571,1.977 -6.543,4.207 0.1719,0.684 0.3281,0.813 0.668,1.328 0.8593,-0.515 4.9375,-3.101 6.6484,-3.961 0.1719,-0.171 0.5156,1.059 0.3437,1.059 -1.1992,1.027 -3.2578,1.887 -6.4609,4.402 0.3438,0.516 0.6875,0.887 0.8594,1.571 2.5156,-1.543 4.2304,-3.086 6.8008,-4.914 1.375,-1.028 2.2343,-1.383 3.207,-2.582 1.0273,-1.887 -0.8047,-6.981 4.625,-8.524 l 0.0742,1.617 c -3.6016,2.172 -2.0586,5.543 -3.4297,7.602 -0.8594,1.371 -5.1601,3.258 -3.1015,6.117 2.3437,-1.715 8.6875,-6.973 8.6875,-7.144 0.3437,-1.032 -1.1993,-3.946 1.6562,-5.774 2.918,-1.887 15.5469,-4.633 19.6055,-4.117 6.4609,0.516 13.789,2.039 18.5898,7.473 0.8555,-1.032 1.836,-3.528 2.3516,-3.7 l 5.4297,1.536 c -0.1016,0.222 0.3633,5.382 0.3633,10.695 0,8.347 0.0859,10.273 -0.961,12.379 -1.7383,2.277 -2.3984,3.269 -6.918,5.383"
         style="fill:#231f20;fill-opacity:1;fill-rule:nonzero;stroke:none"
         id="path62" /><path
         d="m 79.1133,58.7891 c 0,0 1.7148,0 6.1172,0 0,-6 0,-8.1719 0,-8.1719 -0.3438,-0.5156 -2.0586,-0.8594 -5.9453,-3.6016 -4.8008,-3.4297 -6.8008,-4.914 -11.4297,-7.832 0,8.3477 6.9726,12.6328 8.5156,14.6328 1.1992,1.543 1.7148,4.6289 2.7422,4.9727"
         style="fill:#231f20;fill-opacity:1;fill-rule:nonzero;stroke:none"
         id="path64" /><path
         d="m 79.1133,58.7891 c 0,0 1.7148,0 6.1172,0 0,-6 0,-8.1719 0,-8.1719 -0.3438,-0.5156 -2.0586,-0.8594 -5.9453,-3.6016 -4.8008,-3.4297 -6.8008,-4.914 -11.4297,-7.832 0,8.3477 6.9726,12.6328 8.5156,14.6328 1.1992,1.543 1.7148,4.6289 2.7422,4.9727 z"
         style="fill:none;stroke:#231f20;stroke-width:0.571;stroke-linecap:butt;stroke-linejoin:miter;stroke-miterlimit:3.86371;stroke-dasharray:none;stroke-opacity:1"
         id="path66" /><path
         d="m 98.8906,58.7891 c 4.6294,0 6.2894,0 6.2894,0 0.172,-0.1719 2.687,-5.3164 4.574,-6.9727 3.43,-3.9414 5.601,-3.2578 6.285,-12.6328 -3.887,2.2305 -5.945,3.9453 -9.828,6.9727 -4.117,3.0859 -6.004,3.2617 -6.8633,4.4609 -0.5118,0.8555 -0.3985,2.9726 -0.4571,8.1719"
         style="fill:#231f20;fill-opacity:1;fill-rule:nonzero;stroke:none"
         id="path68" /><path
         d="m 98.8906,58.7891 c 4.6294,0 6.2894,0 6.2894,0 0.172,-0.1719 2.687,-5.3164 4.574,-6.9727 3.43,-3.9414 5.601,-3.2578 6.285,-12.6328 -3.887,2.2305 -5.945,3.9453 -9.828,6.9727 -4.117,3.0859 -6.004,3.2617 -6.8633,4.4609 -0.5118,0.8555 -0.3985,2.9726 -0.4571,8.1719 z"
         style="fill:none;stroke:#231f20;stroke-width:0.571;stroke-linecap:butt;stroke-linejoin:miter;stroke-miterlimit:3.86371;stroke-dasharray:none;stroke-opacity:1"
         id="path70" /><path
         d="m 80.4688,180.375 -0.0235,-0.199 c 2.7656,-1.418 2.9102,-1.387 5.5508,0.238 -0.793,1.516 -2.1797,2.531 -3.9844,2.078 -1.0469,-0.418 -1.4219,-1.008 -1.5429,-2.117 z m -1.0508,8.156 c -0.3672,-2.176 0.1172,-2.398 1.4648,-3.773 0.582,1.543 0.9727,2.637 -1.4648,3.773 z m 2.1562,0.059 c -0.5039,-1.86 -0.3437,-2.758 1.6524,-3.695 0.125,1.839 0.5351,2.148 -1.6524,3.695 z m 2.2735,-0.195 c -0.5079,-1.821 -0.5079,-2.446 1.6484,-3.7 0.1289,1.844 0.2773,2.309 -1.6484,3.7 z m 2.0703,0.093 c -0.6172,-1.949 -0.3125,-2.695 1.832,-3.66 0.1289,1.844 -0.2617,2.027 -1.832,3.66 z m -5.5547,2.953 c 1.5469,0.356 3.4687,-0.339 5.0781,-1.05 2.1406,-1.371 4.9297,-3.688 5.4649,-6.188 0.5078,-1.523 -0.1954,-21.015 -0.1954,-21.015 L 90.332,162.93 c 0,0 -2.1523,4.273 -3.4492,5.496 -0.3555,0.179 -3.3906,-0.535 -8.6836,0 -0.3554,2.32 -0.5937,3.519 -0.5937,5.445 -0.9024,0.176 -1.0586,0.199 -1.9492,0.379 1.7851,8.863 -1.1797,14.629 4.707,17.191"
         style="fill:#231f20;fill-opacity:1;fill-rule:evenodd;stroke:none"
         id="path72" /></g></g></svg>
